<svg width="130" height="129" viewBox="0 0 130 129" xmlns="http://www.w3.org/2000/svg"><g fill-rule="nonzero" fill="none"><path d="M65.0327 0C39.0594-.0033 15.6417 15.6401 5.7 39.6354c-9.9419 23.9953-4.45 51.6166 13.9148 69.9837s45.9855 23.8626 69.982 13.9238c23.9965-9.9388 39.643-33.3545 39.643-59.3278 0-35.4618-28.7452-64.2106-64.207-64.2151m0 122.0038c-23.3781.0033-44.456-14.0773-53.404-35.6752-8.9479-21.598-4.0036-46.4594 12.5273-62.9902C40.6868 6.8075 65.5483 1.8632 87.1462 10.8112c21.598 8.9479 35.6785 30.0258 35.6752 53.4039-.0045 31.914-25.8748 57.7842-57.7887 57.7887" fill="#FFD51E"/><path d="M65.0327 6.4182C41.6553 6.415 20.578 20.4946 11.6295 42.0915c-8.9484 21.597-4.0056 46.4578 12.5236 62.9893 16.5291 16.5314 41.3892 21.4778 62.9874 12.5324 21.5982-8.9454 35.6809-30.0207 35.6809-53.3981 0-31.9171-25.8716-57.7923-57.7887-57.7969" fill="#FFF"/><path d="M78.2126 28.3465c10.6329 3.79 19.0012 12.1553 22.795 22.7868l11.4465 3.2705C108.6828 35.454 93.8738 20.6386 74.9258 16.859l3.2868 11.4874z" fill="#FFD51E"/><path d="M112.495 54.4201c-3.7713-18.9677-18.6007-33.7939-37.5692-37.561l3.0415 10.629.2453.8176c10.624 3.801 18.9857 12.1627 22.7868 22.7868l.883.2534 10.6126 3.0742zM77.9755 27.4962l9.9421-5.159.327 10.4653-.7276-.5233a32.9006 32.9006 0 0 0-9.5415-4.7748v-.0082zm10.3673 5.3799l10.5308-2.4528-2.3956 10.5962a39.0409 39.0409 0 0 0-8.1761-8.1761l.0409.0327zm8.1842 8.2006l10.3919.3025-5.0692 9.9667a37.7409 37.7409 0 0 0-5.3227-10.2692z" fill="#000"/><path d="M100.893 77.395c-3.7899 10.6328-12.1552 19.0012-22.7867 22.795l-3.2705 11.4465c18.9678-3.7713 33.794-18.6007 37.561-37.5692l-11.5037 3.3277z" fill="#FFD51E"/><path d="M74.8195 111.6774c18.9677-3.7713 33.7939-18.6007 37.561-37.5692l-10.629 3.0415-.8175.2453c-3.798 10.626-12.1609 18.9887-22.7868 22.7868l-.2535.883-3.0742 10.6126zm26.932-34.5195l5.1592 9.9421-10.4654.327c.1799-.2452.3597-.4905.5233-.7276a33.3176 33.3176 0 0 0 4.783-9.5415zm-5.3798 10.3673l2.4528 10.5308-10.6044-2.3956a39.0409 39.0409 0 0 0 8.1761-8.1761l-.0245.0409zm-8.2333 8.2251l-.2944 10.3918-9.9748-5.0691a37.61 37.61 0 0 0 10.2692-5.3227z" fill="#000"/><path d="M51.8447 100.0755c-10.633-3.79-19.0013-12.1553-22.795-22.7868L17.603 74.0182c3.7792 18.9784 18.6268 33.8066 37.6101 37.561l-3.3685-11.5037z" fill="#FFD51E"/><path d="M17.5623 74.0019c3.7771 18.9795 18.6256 33.8086 37.61 37.561l-3.0415-10.629-.2453-.8175C41.2353 96.3198 32.8544 87.9389 29.058 77.2887l-.883-.2535-10.6126-3.0333zm34.5276 26.9239l-9.9421 5.1591-.327-10.4654.7276.5233a32.8925 32.8925 0 0 0 9.5497 4.7748l-.0082.0082zM41.6981 95.554l-10.5308 2.4528 2.3547-10.6044a39.0409 39.0409 0 0 0 8.1761 8.1761v-.0245zm-8.176-8.2333l-10.392-.2944 5.0693-9.9748a37.8553 37.8553 0 0 0 5.3226 10.2692z" fill="#000"/><path d="M29.1642 51.027c3.7899-10.6328 12.1552-19.0012 22.7867-22.795l3.2705-11.4465c-18.9795 3.7772-33.8087 18.6257-37.561 37.6101l11.5038-3.3686z" fill="#FFD51E"/><path d="M55.2377 16.7447c-18.9794 3.777-33.8086 18.6256-37.561 37.61l10.629-3.0415.8176-.2453c3.7995-10.6483 12.1793-19.0281 22.8276-22.8276l.2535-.883 3.0333-10.6126zM28.3138 51.2723l-5.1673-9.9503 10.4655-.327c-.18.2453-.3598.4905-.5233.7276a32.8925 32.8925 0 0 0-4.7749 9.5497zm5.3717-10.3918l-2.4528-10.5308 10.6044 2.3547a39.0409 39.0409 0 0 0-8.176 8.1761h.0244zm8.2334-8.1761l.3025-10.3918 9.9667 5.0692a37.9698 37.9698 0 0 0-10.2692 5.3226z" fill="#000"/><path d="M90.207 48.239c4.8238 7.3585 5.9112 18.2245 2.608 26.6132-3.7854 10.2283-14.308 18.1837-25.0515 18.8868-11.2585 1.0057-21.3968-3.9818-27.7987-13.417-5.429-8.0044-6.2139-20.7182-1.6352-29.3767 4.8156-9.6067 14.4197-15.887 25.1512-16.4467 10.7316-.5599 20.937 4.687 26.7261 13.7404" fill="#EF3F34"/><path d="M21.8138 57.6497a5.2 5.2 0 0 0-2.1912-.417 6.7616 6.7616 0 0 0-6.9088 7.0315 6.6145 6.6145 0 0 0 6.9088 6.9415 6.4019 6.4019 0 0 0 2.3384-.4906l.4088-3.5403a4.5868 4.5868 0 0 1-2.51.9894c-2.1135-.0962-3.7775-1.8376-3.7775-3.9532 0-2.1156 1.664-3.857 3.7774-3.9531a4.3497 4.3497 0 0 1 2.4529.9566l-.4988-3.5648zM25.5667 57.527v13.5233l3.3031-.3107V57.2164zM35.1409 60.5686v10.4817l3.3113-.3107v-10.171h3.2132V57.527h-9.1163l-.834 3.0416zM46.9717 70.7723l3.4258.4334 5.5843-13.0164-3.1315-.973-2.1666 5.3963-3.4013-5.3962-3.0988 1.2672 4.9302 7.6774zM68.9 70.7723l3.4258.4334 5.5924-13.0164-3.1396-.973-2.1585 5.3963-3.4094-5.3962-3.0906 1.2672 4.922 7.6774zM88.0484 70.895l.8176-2.829h-5.2408v-2.5673h3.4503v-2.8289h-3.4503V60.356h4.832l-.5886-2.829h-7.5548v13.368zM97.4673 57.2327L90.3459 70.519l3.2132.6868L94.9 68.344h5.0855l1.3573 2.8617 3.3685-.6868-7.2031-13.2862h-.0409zm0 5.3799l1.7742 3.2704h-3.5402l1.766-3.2704zM110.0503 60.356c1.3654-.0573 2.5346.1962 2.5346 1.7905 0 1.5944-1.112 2.044-2.5346 1.946V60.356zM106.78 71.0503l3.2704-.3107v-5.8459h.0409l3.8918 6.312 3.3522-1.0711-3.6056-5.0855a3.622 3.622 0 0 0 2.1585-3.3931c0-3.0334-2.273-4.088-5.3881-4.088h-3.761l.0409 13.4823z" fill="#000"/></g></svg>