<?xml version="1.0" encoding="UTF-8"?> <svg xmlns="http://www.w3.org/2000/svg" width="262" height="74" viewBox="0 0 262 74" fill="none"><g clip-path="url(#clip0_243_130)"><path d="M57.8665 40.936H66.6968C68.5324 40.936 69.6888 39.9693 69.6888 38.1739C69.6888 37.2559 69.3977 36.5735 68.5324 35.7043L61.4407 28.2872C59.322 26.0126 58.1091 23.8272 58.1091 21.1139C58.1091 16.3614 61.5377 13.0713 67.2224 13.0713H75.4706V19.1317H67.8047C66.2116 19.1317 65.1038 20.0984 65.1038 21.7475C65.1038 22.958 65.5405 23.7379 66.6483 24.8508L73.5945 32.1217C75.8102 34.3964 76.538 36.3867 76.538 38.7589C76.538 44.0881 72.8263 46.9964 67.3276 46.9964H57.8745V40.936H57.8665Z" fill="#005291"></path><path d="M79.255 40.936H88.0854C89.921 40.936 91.0773 39.9693 91.0773 38.1739C91.0773 37.2559 90.7862 36.5735 89.921 35.7043L82.8292 28.2872C80.7106 26.0126 79.4976 23.8272 79.4976 21.1139C79.4976 16.3614 82.9262 13.0713 88.611 13.0713H96.8591V19.1317H89.1932C87.6002 19.1317 86.4923 20.0984 86.4923 21.7475C86.4923 22.958 86.929 23.7379 88.0369 24.8508L94.9831 32.1217C97.1988 34.3964 97.9265 36.3867 97.9265 38.7589C97.9265 44.0881 94.2149 46.9964 88.7161 46.9964H79.2631V40.936H79.255Z" fill="#498AC9"></path><path d="M102.552 13.0713H112.248C119.679 13.0713 124.644 17.0926 124.644 24.8915C124.644 32.6903 119.679 36.8091 112.248 36.8091H109.256V46.9883H102.552V13.0713ZM111.576 31.0493C115.676 31.0493 117.795 28.5797 117.795 24.8915C117.795 21.2032 115.676 18.8311 111.576 18.8311H109.264V31.0412H111.576V31.0493Z" fill="#37C0C9"></path><path d="M57.8665 51.8789H62.1765V73.6833H57.8665V51.8789Z" fill="#FAFBFB"></path><path d="M70.4651 59.6697V73.6833H66.2521V51.8789H70.1255L77.7833 65.462V51.8789H81.9963V73.6833H78.2119L70.457 59.6697H70.4651Z" fill="#FAFBFB"></path><path d="M88.611 55.7702H84.0503V51.8789H97.5061V55.7702H92.913V73.6833H88.6029V55.7702H88.611Z" fill="#FAFBFB"></path><path d="M99.5277 51.8787H111.091V55.77H103.838V60.7825H110.258V64.4869H103.838V69.7837H111.091V73.675H99.5277V51.8706V51.8787Z" fill="#FAFBFB"></path><path d="M114.528 51.8789H121.102C125.784 51.8789 128.728 54.5273 128.728 58.5161C128.728 61.132 127.49 63.2198 125.348 64.3409L128.978 73.6833H124.296L121.167 65.3076H118.838V73.6833H114.528V51.8789ZM120.827 61.79C123.059 61.79 124.329 60.6689 124.329 58.6786C124.329 56.6882 123.148 55.5915 120.827 55.5915H118.846V61.79H120.827Z" fill="#FAFBFB"></path><path d="M136.272 59.6697V73.6833H132.059V51.8789H135.933L143.591 65.462V51.8789H147.804V73.6833H144.019L136.264 59.6697H136.272Z" fill="#FAFBFB"></path><path d="M161.615 68.7927H155.785L154.734 73.6833H150.141L155.502 51.8789H161.923L167.284 73.6833H162.699L161.615 68.7927ZM160.815 65.1776L158.672 55.429L156.561 65.1776H160.807H160.815Z" fill="#FAFBFB"></path><path d="M171.133 55.7702H166.572V51.8789H180.028V55.7702H175.435V73.6833H171.125V55.7702H171.133Z" fill="#FAFBFB"></path><path d="M182.066 51.8789H186.376V73.6833H182.066V51.8789Z" fill="#FAFBFB"></path><path d="M189.344 62.7485C189.344 56.2657 193.904 51.5376 200.446 51.5376C206.988 51.5376 211.516 56.3063 211.516 62.7485C211.516 69.1907 206.956 73.9919 200.446 73.9919C193.937 73.9919 189.344 69.2232 189.344 62.7485ZM200.414 69.9462C204.384 69.9462 207.109 67.0785 207.109 62.7485C207.109 58.4185 204.384 55.5833 200.414 55.5833C196.443 55.5833 193.751 58.451 193.751 62.7485C193.751 67.046 196.476 69.9462 200.414 69.9462Z" fill="#FAFBFB"></path><path d="M218.722 59.6697V73.6833H214.509V51.8789H218.382L226.04 65.462V51.8789H230.253V73.6833H226.468L218.713 59.6697H218.722Z" fill="#FAFBFB"></path><path d="M244.064 68.7927H238.234L237.183 73.6833H232.59L237.951 51.8789H244.372L249.733 73.6833H245.148L244.064 68.7927ZM243.256 65.1776L241.113 55.429L239.002 65.1776H243.248H243.256Z" fill="#FAFBFB"></path><path d="M251.981 51.8789H256.291V69.792H262V73.6833H251.981V51.8789Z" fill="#FAFBFB"></path><path d="M20.3616 73.9998C17.4748 73.9998 15.1216 71.6764 15.0731 68.7843C15.0165 65.8029 17.499 63.3657 20.4667 63.3657H32.9764C33.6638 63.3657 34.2541 62.8458 34.3026 62.1634C34.3511 61.416 33.7608 60.7905 33.0249 60.7905H18.898C15.9302 60.7905 13.4477 58.3533 13.5043 55.3719C13.5609 52.4798 15.906 50.1564 18.7928 50.1564H26.9682C39.6881 50.1564 50.0145 39.7091 49.9175 26.9141C49.8204 14.3709 39.6315 4.13484 27.1461 4.03736C14.41 3.93987 4.01086 14.3221 4.01086 27.0928C4.01086 34.8998 7.90043 42.0813 14.3049 46.33C14.3938 46.3869 14.4909 46.4519 14.5798 46.5088C14.7901 46.6469 14.7739 46.9556 14.5475 47.0693C14.4262 47.1343 14.2968 47.1993 14.1755 47.2724C13.472 47.6705 12.8251 48.1579 12.2509 48.7184C12.1054 48.8647 11.9598 49.0109 11.8223 49.1653C11.7091 49.2871 11.5231 49.3115 11.3938 49.214C11.1835 49.0678 10.9814 48.9215 10.7792 48.7672C7.77105 46.5006 5.25617 43.6248 3.42056 40.3265C1.18062 36.3052 0 31.7234 0 27.0847C0 12.08 12.2105 -0.113921 27.1704 -0.00018737C41.8391 0.113546 53.807 12.1449 53.9202 26.8735C54.0335 41.9107 41.8957 54.1695 26.9601 54.1695H18.8252C18.1378 54.1695 17.5475 54.6895 17.499 55.3719C17.4505 56.1193 18.0408 56.7448 18.7767 56.7448H32.9036C35.8714 56.7448 38.3539 59.1819 38.2973 62.1634C38.2407 65.1448 35.8956 67.3789 33.0088 67.3789H20.3939C19.7066 67.3789 19.1163 67.8988 19.0678 68.5812C19.0193 69.3286 19.6096 69.9541 20.3454 69.9541H34.432C34.6099 69.9541 34.7554 70.1004 34.7554 70.2791V73.6586C34.7554 73.8373 34.6099 73.9836 34.432 73.9836H20.3454L20.3616 73.9998Z" fill="#FAFBFB"></path><path d="M43.7879 36.8743C43.1653 37.9547 42.2919 38.7915 41.1922 39.352C40.1409 39.8963 38.8956 40.1644 37.5048 40.1644C36.502 40.1644 35.3942 40.0182 34.1893 39.7339C33.3322 39.5308 32.4265 39.2546 31.4561 38.9134C30.0572 38.4097 28.545 37.7516 26.9115 36.9474C27.9223 36.4518 28.9736 35.8913 30.0733 35.2739C30.7849 35.5907 31.4561 35.8669 32.0949 36.1025C33.0977 36.4762 34.0114 36.7605 34.8443 36.9555C35.8551 37.1992 36.7446 37.3048 37.5048 37.3048C39.4536 37.3048 40.6585 36.5899 41.3215 35.4364C42.2434 33.836 41.9119 31.74 39.3889 29.0429C40.1733 28.3767 40.8606 27.7268 41.4671 27.0769C41.8553 27.4912 42.203 27.8974 42.5183 28.3036C43.6262 29.7415 44.3135 31.1795 44.548 32.5768C44.7987 34.0797 44.548 35.5663 43.796 36.8662L43.7879 36.8743ZM22.3589 15.2568C21.3966 14.9074 20.4828 14.6312 19.6257 14.4281C18.4127 14.1438 17.313 13.9976 16.3022 13.9976C14.9113 13.9976 13.666 14.2738 12.6148 14.8181C11.515 15.3867 10.6417 16.2154 10.019 17.2958C9.26698 18.5956 9.00821 20.0823 9.25889 21.5852C9.4934 22.9825 10.1807 24.4204 11.2886 25.8584C11.604 26.2645 11.9517 26.6707 12.3398 27.0851C12.9463 26.4433 13.6336 25.7852 14.418 25.1191C11.8951 22.422 11.5635 20.326 12.4854 18.7256C13.1485 17.572 14.3453 16.8571 16.2941 16.8571C17.0623 16.8571 17.9437 16.9709 18.9626 17.2065C19.7874 17.4014 20.7012 17.6777 21.712 18.0595C22.3508 18.2951 23.022 18.5713 23.7336 18.8881C24.8333 18.2707 25.8846 17.7102 26.8954 17.2146C25.2619 16.4022 23.7498 15.7523 22.3508 15.2486L22.3589 15.2568ZM24.0085 32.1381C22.9896 31.545 22.0435 30.9764 21.1783 30.4158C20.1028 29.7253 19.1324 29.0673 18.2672 28.4336C17.6364 27.9706 17.0623 27.5237 16.5448 27.0932C15.7199 27.7837 15.0164 28.4336 14.4342 29.0591C15.5663 30.0178 16.8844 31.0089 18.4046 32.0243C19.3346 32.6499 20.3454 33.2917 21.429 33.9416C21.8009 34.169 22.1891 34.3965 22.5772 34.624C22.9735 34.8514 23.3535 35.0708 23.7417 35.2901C24.7201 34.8514 25.7794 34.3478 26.9035 33.7547C25.9897 33.2754 25.0193 32.7392 24.0004 32.1462L24.0085 32.1381ZM35.4104 22.1539C34.4804 21.5284 33.4696 20.8866 32.3861 20.2367C32.0141 20.0092 31.6259 19.7817 31.2378 19.5543C30.8415 19.3268 30.4615 19.1075 30.0733 18.8881C29.0949 19.3268 28.0436 19.8305 26.9115 20.4235C27.8253 20.9028 28.7957 21.439 29.8146 22.032C30.8335 22.6251 31.7796 23.1937 32.6448 23.7543C33.7203 24.4448 34.6907 25.1028 35.5559 25.7365C36.1867 26.1996 36.7608 26.6464 37.2783 27.0769C38.1032 26.3864 38.8067 25.7365 39.3889 25.111C38.2568 24.1442 36.9387 23.1612 35.4185 22.1458L35.4104 22.1539Z" fill="#005291"></path><path d="M19.6339 39.7501C18.4209 40.0344 17.3131 40.1807 16.3103 40.1807C14.9195 40.1807 13.6742 39.9045 12.6229 39.3683C11.5232 38.7996 10.6498 37.971 10.0272 36.8905C9.27516 35.5907 9.01639 34.104 9.26707 32.6011C9.50158 31.2038 10.1889 29.7659 11.2968 28.328C11.6121 27.9218 11.9598 27.5156 12.348 27.1013C12.9545 26.4595 13.6418 25.8015 14.4262 25.1353C15.5583 24.1686 16.8764 23.1856 18.3966 22.1701C18.3239 23.2912 18.2753 24.4854 18.2592 25.7609C17.6284 26.2239 17.0543 26.6707 16.5368 27.1013C15.7119 27.7918 15.0084 28.4417 14.4262 29.0673C11.9032 31.7644 11.5717 33.8603 12.4936 35.4607C13.1566 36.6143 14.3534 37.3292 16.3023 37.3292C17.0705 37.3292 17.9519 37.2155 18.9708 36.9799C19.1568 37.9954 19.367 38.9215 19.6258 39.7664L19.6339 39.7501ZM29.8066 32.1381C28.7877 32.7311 27.8173 33.2592 26.9036 33.7466C25.7715 34.3396 24.7202 34.8514 23.7418 35.282C23.0302 35.5988 22.359 35.875 21.7202 36.1106C21.8981 37.1749 22.1164 38.1091 22.359 38.9215C23.7579 38.4178 25.2701 37.7679 26.9036 36.9555C27.9144 36.46 28.9656 35.8994 30.0653 35.282C30.4454 35.0708 30.8336 34.8433 31.2298 34.6159C31.626 34.3884 32.0061 34.1609 32.3781 33.9334C32.4913 32.8611 32.5802 31.6913 32.6287 30.4158C31.7554 30.9682 30.8174 31.545 29.7985 32.1381H29.8066ZM43.788 17.2958C43.1653 16.2154 42.292 15.3786 41.1923 14.8181C40.141 14.2738 38.8957 13.9976 37.5049 13.9976C36.5021 13.9976 35.3943 14.1438 34.1894 14.4281C34.4401 15.273 34.6584 16.1991 34.8444 17.2146C35.8552 16.9709 36.7447 16.8653 37.5049 16.8653C39.4537 16.8653 40.6586 17.5802 41.3216 18.7338C42.2435 20.3341 41.9119 22.4301 39.389 25.1272C38.8068 25.7527 38.1032 26.4027 37.2784 27.0932C36.7528 27.5237 36.1868 27.9787 35.556 28.4336C35.5399 29.7009 35.4913 30.8951 35.4186 32.0243C36.9388 31.0089 38.2569 30.0178 39.389 29.0591C40.1734 28.393 40.8607 27.7431 41.4672 27.0932C41.8553 26.6789 42.2031 26.2727 42.5184 25.8665C43.6263 24.4286 44.3136 22.9906 44.5481 21.5933C44.7988 20.0904 44.5481 18.6038 43.7961 17.304L43.788 17.2958ZM31.4481 15.2568C30.0492 15.7604 28.537 16.4185 26.9036 17.2227C25.9008 17.7183 24.8415 18.2788 23.7418 18.8962C23.3617 19.1075 22.9736 19.3349 22.5773 19.5624C22.1811 19.7899 21.801 20.0173 21.429 20.2448C21.3158 21.3171 21.2269 22.487 21.1703 23.7705C22.0436 23.2181 22.9816 22.6413 24.0005 22.0483C25.0194 21.4552 25.9898 20.9191 26.9036 20.4398C28.0357 19.8467 29.0869 19.3349 30.0653 18.9044C30.7769 18.5875 31.4481 18.3113 32.0869 18.0757C31.909 17.0115 31.6907 16.0773 31.4481 15.2568Z" fill="#37C0C9"></path><path d="M34.1813 39.75C34.0196 40.2943 33.8417 40.798 33.6476 41.2773C32.9684 42.9671 32.0708 44.275 30.9791 45.1849C29.8066 46.1597 28.3995 46.6715 26.9035 46.6715C25.4076 46.6715 24.0005 46.1597 22.828 45.1849C21.7444 44.2831 20.8387 42.9671 20.1595 41.2773C19.9654 40.798 19.7875 40.2943 19.6258 39.75C19.367 38.9051 19.1567 37.979 18.9708 36.9635C18.7039 35.5013 18.5179 33.8602 18.3966 32.0243C19.3266 32.6498 20.3374 33.2916 21.4209 33.9415C21.5018 34.7214 21.5988 35.4444 21.7121 36.1105C21.89 37.1748 22.1083 38.109 22.3509 38.9214C23.4102 42.4634 25.0517 43.8038 26.8954 43.8038C28.7392 43.8038 30.3807 42.4715 31.44 38.9295C32.4023 39.2788 33.3161 39.5469 34.1732 39.75H34.1813ZM34.8363 17.2226C34.6503 16.2072 34.432 15.281 34.1813 14.4362C34.0196 13.8919 33.8417 13.3882 33.6476 12.9089C32.9684 11.2191 32.0708 9.91118 30.9791 9.00131C29.8066 8.02645 28.3995 7.51465 26.9035 7.51465C25.4076 7.51465 24.0005 8.02645 22.828 9.00131C21.7363 9.90306 20.8387 11.2191 20.1595 12.9089C19.9654 13.3801 19.7875 13.8919 19.6258 14.4362C20.4829 14.6393 21.3886 14.9155 22.359 15.2648C23.4183 11.7228 25.0598 10.3824 26.9035 10.3824C28.7472 10.3824 30.3888 11.7147 31.4481 15.2567C31.6907 16.0772 31.909 17.0114 32.0869 18.0756C32.2001 18.7499 32.2972 19.4648 32.3861 20.2447C33.4697 20.8946 34.4805 21.5364 35.4105 22.1619C35.2892 20.3259 35.1032 18.6849 34.8363 17.2226ZM35.5479 25.7445C34.6827 25.1109 33.7123 24.4528 32.6368 23.7623C32.6853 24.8022 32.7015 25.907 32.7015 27.085C32.7015 28.2629 32.6772 29.3759 32.6368 30.4076C32.5802 31.6912 32.4993 32.861 32.3861 33.9252C32.3053 34.7051 32.2001 35.4281 32.0869 36.0943C33.0896 36.468 34.0034 36.7523 34.8363 36.9473C35.1032 35.485 35.2892 33.844 35.4105 32.008C35.4832 30.8869 35.5317 29.6927 35.5479 28.4173C35.5479 27.9786 35.556 27.5318 35.556 27.0768C35.556 26.6219 35.556 26.1751 35.5479 25.7364V25.7445ZM18.9788 17.2226C18.712 18.6849 18.526 20.3259 18.4047 22.1619C18.3319 23.283 18.2834 24.4772 18.2672 25.7527C18.2672 26.1913 18.2592 26.6382 18.2592 27.0931C18.2592 27.548 18.2592 27.9948 18.2672 28.4335C19.1325 29.0672 20.0948 29.7252 21.1784 30.4157C21.1298 29.3759 21.1137 28.271 21.1137 27.0931C21.1137 25.9151 21.1379 24.8022 21.1784 23.7704C21.235 22.4869 21.3158 21.317 21.4371 20.2447C21.518 19.4648 21.615 18.7418 21.7363 18.0756C20.7336 17.7019 19.8198 17.4176 18.9869 17.2226H18.9788Z" fill="#498AC9"></path><path d="M26.9036 30.1477C28.681 30.1477 30.122 28.7001 30.122 26.9144C30.122 25.1287 28.681 23.6812 26.9036 23.6812C25.1261 23.6812 23.6852 25.1287 23.6852 26.9144C23.6852 28.7001 25.1261 30.1477 26.9036 30.1477Z" fill="#FCC912"></path></g><defs><clipPath id="clip0_243_130"><rect width="262" height="74" fill="white"></rect></clipPath></defs></svg> 