<svg width="432.5" height="65.2" xmlns="http://www.w3.org/2000/svg"><g fill="none"><path d="M65.3 30.2H44.6l19.1-7.9-1.8-4.4-19.2 7.9 14.7-14.7-3.3-3.3-14.7 14.7 7.9-19.1L43 1.6l-8 19.2V0h-4.7v20.6L22.4 1.5 18 3.3l7.9 19.2L11.2 7.9l-3.3 3.3 14.6 14.6-19.1-7.9-1.8 4.4 19.2 8H0V35h20.7L1.6 42.9l1.8 4.4 19.2-7.9L7.9 54l3.3 3.3 14.6-14.6-7.9 19.1 4.4 1.8 8-19.2v20.8H35V44.6l7.9 19.1 4.4-1.8-7.9-19.2 14.7 14.7 3.3-3.3-14.6-14.7 19.1 7.9 1.8-4.4-19.2-8h20.8v-4.7zm-27.1 3c-1.2.5-2.3 1.3-3.2 2.2-.5.5-.9 1.1-1.3 1.7-.5.9-.9 1.9-1.1 2.9-.1-.6-.3-1.2-.5-1.7-.9-2.3-2.7-4.2-5-5.2-.1 0-.1-.1-.2-.1-.7-.1-1.8-.4-1.8-.4s1.4-.4 2-.6c.4-.2.7-.3 1.1-.5.6-.3 1.1-.8 1.6-1.2 1.5-1.3 2.5-3.1 2.9-5.1.6 3.1 2.7 5.6 5.6 6.9.6.2 2 .6 2 .6s-1.5.3-2.1.5z" fill="#A71AD9"/><path d="M88.6 45.7V24h-9.4v-4.9h24.7V24h-9.4v21.8h-5.9zm22.7.5c-2.3 0-4.3-.4-5.9-1.1-1.6-.7-2.9-1.8-3.7-3.3-.9-1.5-1.3-3.3-1.3-5.6s.4-4.1 1.3-5.6c.8-1.5 2.1-2.6 3.7-3.3 1.6-.7 3.5-1.1 5.8-1.1s4.2.4 5.7 1.1c1.6.7 2.7 1.8 3.5 3.2.8 1.4 1.2 3.2 1.2 5.4v1.5h-15.7c.1 1.1.3 2 .7 2.7.4.7 1 1.3 1.8 1.6.8.4 1.8.5 3 .5.6 0 1.1-.1 1.7-.2.6-.1 1.1-.3 1.5-.6.4-.3.8-.6 1.1-1 .3-.4.4-.9.5-1.4h5.3c0 1.1-.2 2.1-.7 3-.5.9-1.2 1.6-2.1 2.2-.9.6-2 1.1-3.2 1.4-1.3.4-2.7.6-4.2.6zm-5.4-12.1h10c0-.7-.1-1.3-.4-1.8-.2-.5-.6-.9-1-1.2-.4-.3-.9-.6-1.5-.7-.6-.2-1.2-.2-1.9-.2-1 0-1.9.1-2.7.4-.8.3-1.4.7-1.8 1.3-.3.6-.6 1.4-.7 2.2zm25.8 12.1c-.9 0-1.8-.1-2.6-.2-.9-.2-1.6-.4-2.3-.8-.7-.4-1.2-1-1.6-1.7-.4-.7-.6-1.6-.6-2.7 0-1.4.4-2.6 1.1-3.4.7-.9 1.7-1.5 3-2 1.3-.4 2.8-.7 4.6-.9 1.8-.1 3.7-.2 5.9-.2v-1.1c0-.7-.1-1.2-.4-1.6-.3-.4-.7-.8-1.4-1-.6-.2-1.4-.3-2.4-.3-.9 0-1.6.1-2.3.3-.6.2-1.1.4-1.4.7-.3.3-.5.6-.5 1v.4h-5.3c0-.1 0-.2-.1-.3v-.3c0-1.1.4-2.1 1.1-2.9.8-.8 1.9-1.5 3.3-1.9 1.5-.5 3.2-.7 5.3-.7 2 0 3.7.2 5.1.7 1.4.4 2.4 1.1 3.2 2 .7.9 1.1 2.1 1.1 3.6v8.3c0 .4.1.8.3 1 .2.2.5.3.9.3h1.6v3.4c-.3.1-.7.2-1.3.4-.6.2-1.3.2-2 .2-.9 0-1.7-.1-2.3-.3-.6-.2-1-.6-1.4-1-.3-.4-.6-.9-.7-1.4h-.3c-.6.5-1.2 1-2 1.4-.7.4-1.6.7-2.5 1-.9-.2-2 0-3.1 0zm1.6-3.9c.7 0 1.3-.1 2-.3.7-.2 1.3-.4 1.9-.8.6-.3 1-.7 1.4-1.2.3-.5.5-1 .5-1.6v-1c-2 0-3.6.1-5 .3-1.4.2-2.4.5-3.1.9-.7.4-1.1 1-1.1 1.8 0 .5.2.9.5 1.1.3.3.7.5 1.2.6.5.1 1.1.2 1.7.2zm27.5 3.9c-2.3 0-4.2-.4-5.8-1.1-1.6-.7-2.8-1.8-3.6-3.3-.8-1.5-1.2-3.3-1.2-5.6s.4-4.1 1.3-5.6c.8-1.5 2.1-2.6 3.6-3.3 1.6-.7 3.5-1.1 5.7-1.1 1.4 0 2.8.2 4 .5 1.2.3 2.3.8 3.2 1.5.9.7 1.6 1.5 2.1 2.4.5.9.7 2.1.7 3.4h-5.3c0-.8-.2-1.5-.6-2.1-.4-.6-.9-1-1.6-1.3-.7-.3-1.5-.4-2.4-.4-1.1 0-2.1.2-2.8.6-.8.4-1.3 1-1.7 1.9-.4.8-.6 1.8-.6 3.1v.8c0 1.2.2 2.2.6 3.1.4.8 1 1.5 1.8 1.9.8.4 1.8.6 3 .6.9 0 1.7-.2 2.4-.5s1.3-.7 1.7-1.3c.4-.6.6-1.3.6-2h5.1c0 1.3-.2 2.4-.7 3.4-.5 1-1.2 1.8-2.1 2.5-.9.7-1.9 1.2-3.2 1.5-1.4.2-2.7.4-4.2.4zm12.9-.5V19.1h5.3V29h.3c.5-.6 1.1-1.2 1.8-1.6.7-.4 1.5-.7 2.3-.9.8-.2 1.6-.3 2.5-.3 1.5 0 2.8.3 3.9.8s1.9 1.3 2.5 2.4c.6 1.1.8 2.4.8 4.1v12.2h-5.3V34.4c0-.7-.1-1.3-.3-1.7-.2-.5-.4-.9-.8-1.2-.3-.3-.7-.5-1.2-.7-.5-.1-1-.2-1.6-.2-.9 0-1.7.2-2.4.6-.7.4-1.3.9-1.8 1.6-.4.7-.7 1.5-.7 2.4v10.6h-5.3v-.1zm32.7 0V19.2h21.1V24h-15.3v7.5H225v4.7h-12.8v9.6h-5.8zm32.4.5c-2.3 0-4.2-.4-5.9-1.1-1.6-.7-2.8-1.8-3.7-3.3-.9-1.5-1.3-3.3-1.3-5.6s.4-4.1 1.3-5.6 2.1-2.6 3.7-3.3c1.6-.7 3.6-1.1 5.9-1.1 2.3 0 4.2.4 5.9 1.1 1.6.7 2.9 1.8 3.7 3.3.9 1.5 1.3 3.3 1.3 5.6s-.4 4.1-1.3 5.6-2.1 2.6-3.7 3.3c-1.7.7-3.6 1.1-5.9 1.1zm0-4.1c1.2 0 2.2-.2 3-.7.8-.4 1.4-1.1 1.8-1.9.4-.8.6-1.8.6-3v-.8c0-1.2-.2-2.2-.6-3.1-.4-.8-1-1.5-1.8-1.9-.8-.4-1.8-.6-3-.6s-2.2.2-3 .6c-.8.4-1.4 1-1.8 1.9-.4.8-.6 1.8-.6 3.1v.9c0 1.2.2 2.2.6 3 .4.8 1 1.4 1.8 1.9.8.4 1.8.6 3 .6zm13.8 3.6v-19h4.4l.4 3.1h.3c.3-.7.6-1.3 1.1-1.8.5-.5 1-1 1.7-1.3.7-.3 1.4-.5 2.3-.5.4 0 .8 0 1.2.1.4.1.7.2 1 .3v4.7h-2.1c-.8 0-1.6.1-2.2.4-.6.3-1.1.6-1.5 1.1-.4.5-.7 1-.9 1.7-.2.7-.3 1.3-.3 2.1v9.2h-5.4v-.1zm19.2 0l10.9-24.8h6.8l10.9 24.8h-6.2l-2-4.7h-12.4l-2 4.7h-6zm9.8-9.3h8.7l-2.5-5.9c-.1-.3-.2-.6-.4-1s-.3-.9-.5-1.4c-.2-.5-.3-.9-.5-1.4-.2-.4-.3-.8-.3-1h-.3c-.2.5-.4 1-.6 1.6-.2.6-.5 1.2-.7 1.8-.2.6-.4 1-.5 1.4l-2.4 5.9zm21.8 9.3V26.6h4.4l.4 2.9h.3c.5-.8 1.2-1.4 1.9-1.9s1.5-.9 2.3-1.1c.8-.2 1.7-.4 2.6-.4 1.5 0 2.8.3 3.8.8s1.8 1.4 2.3 2.5h.3c.6-.8 1.2-1.4 1.9-1.9s1.5-.9 2.4-1.1c.9-.2 1.7-.4 2.6-.4 1.4 0 2.7.3 3.7.8s1.8 1.3 2.3 2.3c.5 1.1.8 2.4.8 4.1v12.3h-5.3V34.3c0-.7-.1-1.3-.3-1.7-.2-.5-.4-.9-.7-1.2-.3-.3-.7-.5-1.1-.6-.4-.1-.9-.2-1.5-.2-.8 0-1.6.2-2.2.6-.7.4-1.2.9-1.6 1.6-.4.7-.6 1.5-.6 2.4v10.6h-5.3V34.3c0-.7-.1-1.3-.2-1.7-.2-.5-.4-.9-.7-1.2-.3-.3-.7-.5-1.1-.6-.4-.1-.9-.2-1.5-.2-.8 0-1.6.2-2.3.6-.7.4-1.2.9-1.6 1.6-.4.7-.6 1.5-.6 2.4v10.6h-5.4v-.1zm45.9 0c-2.3 0-4.3-.4-5.9-1.1-1.6-.7-2.9-1.8-3.7-3.3-.9-1.5-1.3-3.3-1.3-5.6s.4-4.1 1.3-5.6c.8-1.5 2.1-2.6 3.7-3.3 1.6-.7 3.5-1.1 5.8-1.1s4.2.4 5.7 1.1c1.6.7 2.7 1.8 3.5 3.2.8 1.4 1.2 3.2 1.2 5.4v1.5h-15.7c.1 1.1.3 2 .7 2.7.4.7 1 1.3 1.8 1.6.8.4 1.8.5 3 .5.6 0 1.1-.1 1.7-.2.6-.1 1.1-.3 1.5-.6.4-.3.8-.6 1.1-1 .3-.4.4-.9.5-1.4h5.3c0 1.1-.2 2.1-.7 3-.5.9-1.2 1.6-2.1 2.2-.9.6-2 1.1-3.2 1.4-1.3.4-2.7.6-4.2.6zm-5.4-12.1h10c0-.7-.1-1.3-.4-1.8-.2-.5-.6-.9-1-1.2-.4-.3-.9-.6-1.5-.7-.6-.2-1.2-.2-1.9-.2-1 0-1.9.1-2.7.4-.8.3-1.4.7-1.8 1.3-.3.6-.6 1.4-.7 2.2zm18.6 12.1V26.6h4.4l.4 3.1h.3c.3-.7.6-1.3 1.1-1.8.5-.5 1-1 1.7-1.3.7-.3 1.4-.5 2.3-.5.4 0 .8 0 1.2.1.4.1.7.2 1 .3v4.7h-2.1c-.8 0-1.6.1-2.2.4-.6.3-1.1.6-1.5 1.1-.4.5-.7 1-.9 1.7-.2.6-.3 1.3-.3 2.1v9.2h-5.4zm15.4-21.9v-4.3h5.3v4.3h-5.3zm0 21.9V26.6h5.3v19h-5.3v.1zm18.9 0c-2.3 0-4.2-.4-5.8-1.1-1.6-.7-2.8-1.8-3.6-3.3-.8-1.5-1.2-3.3-1.2-5.6s.4-4.1 1.3-5.6c.8-1.5 2.1-2.6 3.6-3.3 1.6-.7 3.5-1.1 5.7-1.1 1.4 0 2.8.2 4 .5 1.2.3 2.3.8 3.2 1.5.9.7 1.6 1.5 2.1 2.4.5 1 .7 2.1.7 3.4h-5.3c0-.8-.2-1.5-.6-2.1-.4-.6-.9-1-1.6-1.3-.7-.3-1.5-.4-2.4-.4-1.1 0-2.1.2-2.8.6-.8.4-1.3 1-1.7 1.9-.4.8-.6 1.8-.6 3.1v.8c0 1.2.2 2.2.6 3.1.4.8 1 1.5 1.8 1.9.8.4 1.8.6 3 .6.9 0 1.7-.2 2.4-.5s1.3-.7 1.7-1.3c.4-.6.6-1.3.6-2h5.1c0 1.3-.2 2.4-.7 3.4-.5 1-1.2 1.8-2.1 2.5-.9.7-1.9 1.2-3.2 1.5-1.4.2-2.8.4-4.2.4zm20.1 0c-.9 0-1.8-.1-2.6-.2-.9-.2-1.6-.4-2.3-.8-.7-.4-1.2-1-1.6-1.7-.4-.7-.6-1.6-.6-2.7 0-1.4.4-2.6 1.1-3.4.7-.9 1.7-1.5 3-2 1.3-.4 2.8-.7 4.6-.9 1.8-.1 3.7-.2 5.9-.2v-1.2c0-.7-.1-1.2-.4-1.6-.3-.4-.7-.8-1.4-1-.6-.2-1.4-.3-2.4-.3-.9 0-1.6.1-2.3.3-.6.2-1.1.4-1.4.7-.3.3-.5.6-.5 1v.4h-5.3c0-.1 0-.2-.1-.3v-.3c0-1.1.4-2.1 1.1-2.9.8-.8 1.9-1.5 3.3-1.9 1.5-.5 3.2-.7 5.3-.7 2 0 3.7.2 5.1.7 1.4.4 2.4 1.1 3.2 2 .7.9 1.1 2.1 1.1 3.6v8.3c0 .4.1.8.3 1 .2.2.5.3.9.3h1.6v3.4c-.3.1-.7.2-1.3.4-.6.2-1.3.2-2 .2-.9 0-1.7-.1-2.3-.3-.6-.2-1-.6-1.4-1-.3-.4-.6-.9-.7-1.4h-.3c-.6.5-1.2 1-2 1.4-.7.4-1.6.7-2.5 1-1-.1-2 .1-3.1.1zm1.6-3.9c.7 0 1.3-.1 2-.3.7-.2 1.3-.4 1.9-.8.6-.3 1-.7 1.4-1.2.3-.5.5-1 .5-1.6v-1c-2 0-3.6.1-5 .3-1.4.2-2.4.5-3.1.9-.7.4-1.1 1-1.1 1.8 0 .5.2.9.5 1.1.3.3.7.5 1.2.6.5.1 1.1.2 1.7.2z" fill="#091F2C"/></g></svg>